<?xml version="1.0" encoding="utf-8"?>
<!-- Generator: Adobe Illustrator 25.2.3, SVG Export Plug-In . SVG Version: 6.00 Build 0)  -->
<svg version="1.1" id="Capa_1" xmlns="http://www.w3.org/2000/svg" xmlns:xlink="http://www.w3.org/1999/xlink" x="0px" y="0px"
	 viewBox="0 0 512 512" style="enable-background:new 0 0 512 512;" xml:space="preserve">
<style type="text/css">
	.st0{fill:#0A0910;}
</style>
<path class="st0" d="M1.64,237.76c0,10.96,0,21.92,0,32.88c-0.28,0.44-0.56,0.44-0.83-0.01c0-10.95,0-21.91,0-32.86
	C1.09,237.31,1.36,237.33,1.64,237.76z"/>
<path class="st0" d="M1.64,237.76l-0.42-0.01l-0.42,0.02c0-5.31,0-10.62,0-15.93c0.27-0.43,0.55-0.46,0.83-0.01
	C1.64,227.14,1.64,232.45,1.64,237.76z"/>
<path class="st0" d="M1.64,299.53l-0.42,0.02l-0.41-0.04c0-4.98,0-9.96,0-14.94c0.28-0.45,0.56-0.45,0.83,0.01
	C1.64,289.56,1.64,294.54,1.64,299.53z"/>
<path class="st0" d="M1.64,284.58l-0.42,0.01l-0.41-0.01c0-4.65,0-9.29,0-13.94c0.28,0.02,0.55,0.02,0.83,0.01
	C1.64,275.29,1.64,279.93,1.64,284.58z"/>
<path class="st0" d="M1.64,221.83l-0.41-0.01l-0.41,0.02c0-3.32,0-6.64,0-9.96c0.28-0.04,0.55-0.05,0.83-0.01
	C1.64,215.19,1.64,218.51,1.64,221.83z"/>
<path class="st0" d="M511.07,154.11c-0.02-10.41-0.33-20.86-2.01-31.21c-6-36.94-21.66-68.42-51.85-91.62
	c-25.23-19.39-54.28-27.83-85.65-29.52c-8.73-0.47-17.5-0.01-26.21-0.98c-2.32,0-4.65,0-6.97,0c-2.32,0.82-4.65,0.82-6.97,0
	c-0.33,0-0.66,0-1,0c-2.09,1.04-4.32,0.27-6.47,0.51c-2.57,0-5.15,0-7.73,0c-2.38,0-4.77,0-7.16,0c-10.14-0.31-20.3,0.63-30.43-0.51
	c-14.94,0-29.87,0-44.81,0c-10.16,1.15-20.36,0.2-30.55,0.51c-2.68,0-5.36,0-8.04,0c-2.27,0-4.54,0-6.81,0
	c-2.12-0.25-4.33,0.53-6.38-0.51c-1.66,0-3.32,0-4.98,0c-0.67,0.73-1.56,0.45-2.37,0.51c-0.85,0-1.7,0-2.55,0
	c-1.02-0.14-2.15,0.36-3.04-0.51c-1.33,0-2.66,0-3.98,0c-6.69,1.18-13.49,0.7-20.21,0.86c-26.9,0.66-52.13,7.14-75.41,20.63
	c-22.73,13.16-39.75,31.88-51.24,55.4C6.85,101,2.45,126.05,1.85,151.83c-0.47,20.2-0.69,40.41-0.52,60.62c0,3.25,0,6.51,0,9.76
	c0,5.27,0,10.55,0,15.82c0,10.81,0,21.62,0,32.43c0,4.68,0,9.37,0,14.05c0,4.86,0,9.72,0,14.58c0.13,27.51-0.83,55.06,2.11,82.48
	c2.16,20.13,7.44,39.53,17.36,57.27c20.52,36.69,52.11,58.26,92.87,67.32c21.76,4.83,43.83,4.71,65.82,4.77
	c58.72,0.18,117.44,0.64,176.15-0.33c15.29-0.25,30.45-1.43,45.41-4.76c26.56-5.92,49.92-17.97,69.15-37.26
	c19.39-19.45,30.86-43.26,36.81-69.96c3.23-14.51,4.02-29.23,4.06-43.96C511.24,287.82,511.21,220.96,511.07,154.11z M464.73,344.37
	c-0.46,18-1.17,36.06-6.61,53.54c-10.84,34.84-34.79,54.86-70,61.94c-25.03,5.03-50.51,4-75.84,4.64
	c-18.57,0.47-37.17,0.09-55.75,0.09c-36.5,0.27-73.02,0.35-109.47-1.83c-19.8-1.18-39.1-5.1-56.05-16.12
	c-21.97-14.28-33.69-35.28-38.5-60.63c-3.04-16.05-3.53-32.31-3.81-48.51c-0.95-54.42-1-108.86,0.02-163.28
	c0.35-18.84,0.74-37.75,5.63-56.23c10.07-38.07,35.35-59.47,73.29-66.3c27.7-4.99,55.84-4.12,83.86-4.19
	c39.33-0.1,78.66-0.29,117.98,0.23c21.83,0.29,43.8,0.21,65.2,5.79c37.36,9.74,58.81,34.27,66.2,71.66
	c4.2,21.27,3.84,42.88,4.27,64.41C466.21,241.16,466.04,292.77,464.73,344.37z"/>
<path class="st0" d="M392.67,150.14c-17.03-0.02-30.4-13.47-30.39-30.58c0.01-16.97,13.6-30.68,30.46-30.73
	c16.93-0.05,31.1,14.21,30.83,31.04C423.3,136.88,409.74,150.16,392.67,150.14z"/>
<path class="st0" d="M256.81,124.52c-72-0.14-131.27,59.01-131.35,131.1c-0.08,72.06,59.01,131.25,131.13,131.34
	c72.06,0.09,131.2-58.95,131.33-131.12C388.04,183.83,328.97,124.66,256.81,124.52z M256.65,340.44
	c-47.07-0.01-84.73-37.76-84.67-84.88c0.06-47,37.89-84.65,85-84.57c46.71,0.07,84.45,37.9,84.46,84.66
	C341.45,302.72,303.72,340.44,256.65,340.44z"/>
</svg>
