<?xml version="1.0" encoding="utf-8"?>
<!-- Generator: Adobe Illustrator 25.2.3, SVG Export Plug-In . SVG Version: 6.00 Build 0)  -->
<svg version="1.1" id="Capa_1" xmlns="http://www.w3.org/2000/svg" xmlns:xlink="http://www.w3.org/1999/xlink" x="0px" y="0px"
	 viewBox="0 0 410 285" style="enable-background:new 0 0 410 285;" xml:space="preserve">
<style type="text/css">
	.st0{fill:#1A1B20;}
	.st1{fill:#2A2A2F;}
	.st2{fill:#3C3B41;}
	.st3{fill:#3A393E;}
	.st4{fill:#9D9A9F;}
	.st5{fill:#848187;}
	.st6{fill:#0A0910;}
</style>
<path class="st0" d="M1.05,130.11c-0.31,2.13,0.8,4.43-0.78,6.4c0-2.13,0-4.26,0-6.39C0.53,129.76,0.79,129.77,1.05,130.11z"/>
<path class="st0" d="M0.28,147.69c1.58,1.97,0.47,4.27,0.78,6.4c-0.27,0.35-0.53,0.34-0.78-0.01
	C0.28,151.94,0.28,149.82,0.28,147.69z"/>
<path class="st1" d="M1.05,130.11c-0.26,0.01-0.52,0.01-0.78,0.01c0-1.86,0-3.72,0-5.59c0.24-0.36,0.5-0.37,0.76-0.02
	C1.04,126.39,1.05,128.25,1.05,130.11z"/>
<path class="st1" d="M0.28,154.07c0.26,0,0.52,0.01,0.78,0.01c-0.01,1.87-0.02,3.73-0.03,5.6c-0.26,0.33-0.51,0.34-0.75-0.03
	C0.28,157.8,0.28,155.94,0.28,154.07z"/>
<path class="st2" d="M0.28,159.66c0.25,0,0.5,0.01,0.75,0.03c-0.27,1.85,0.82,3.89-0.75,5.56C0.28,163.38,0.28,161.52,0.28,159.66z"
	/>
<path class="st3" d="M1.04,124.52c-0.25,0.01-0.51,0.02-0.76,0.02c0-1.6,0-3.19,0-4.79C1.77,121.15,0.81,122.93,1.04,124.52z"/>
<path class="st4" d="M0.28,113.37c0.98,0.2,0.76,0.91,0.67,1.56c-0.2,0.39-0.43,0.4-0.67,0.03C0.28,114.43,0.28,113.9,0.28,113.37z"
	/>
<path class="st5" d="M0.28,114.96c0.22-0.02,0.44-0.03,0.67-0.03c0.15,0.69,0.21,1.35-0.67,1.63C0.28,116.03,0.28,115.5,0.28,114.96
	z"/>
<path class="st4" d="M0.28,169.24c1.06,0.53,1.19,1.06,0,1.6C0.28,170.3,0.28,169.77,0.28,169.24z"/>
<path class="st6" d="M409.24,112.29c-0.31-13.45-0.89-26.83-2.96-40.12c-2.3-14.77-5.62-29.23-12.73-42.61
	c-7.57-14.24-18.78-23.05-35.08-25.2c-7.53-0.99-15.1-1.36-22.64-1.83c-20.96-1.32-41.98-1.51-62.95-1.56
	C209.72,0.82,146.55-0.16,83.41,2.31C73.58,2.7,63.77,3.17,53.97,4.02c-17.9,1.56-30.47,10.6-38.42,26.57
	C5.63,50.55,2.49,72.01,1.26,93.92c-0.31,5.54-0.04,11.11-0.79,16.63c0,1.06,0,2.13,0,3.19c0.49,0.44,0.39,1.03,0.41,1.6
	c-0.02,0.56,0.08,1.16-0.41,1.6c0,1.06,0,2.13,0,3.19c0.87,1.63,0.2,3.38,0.41,5.07c0,1.75,0,3.5,0,5.25
	c-0.21,2.14,0.45,4.34-0.41,6.45c0,3.72,0,7.45,0,11.17c0.86,2.12,0.2,4.34,0.41,6.51c0,1.76,0,3.53,0,5.29
	c-0.21,1.91,0.46,3.89-0.41,5.76c0,1.33,0,2.66,0,3.99c0.5,0.53,0.5,1.06,0,1.6c0,1.33,0,2.66,0,3.99c0.73,1.09,0.36,2.33,0.4,3.49
	c0.28,9.56,0.37,19.13,1.68,28.62c1.92,13.86,4.53,27.55,9.91,40.59c8.08,19.59,21.63,31.61,43.59,33.35
	c13.13,1.04,26.27,1.28,39.39,2.01c13.79,0.76,27.65,0.62,41.45,0.66c47.87,0.14,95.75,1.13,143.61-0.47
	c15.8-0.53,31.63,0.07,47.45-0.75c9.42-0.49,18.84-0.85,28.23-1.85c16.07-1.71,28.23-9.26,36.21-23.56
	c6.11-10.95,9.75-22.67,12.24-34.85c3.92-19.25,4.74-38.76,4.82-58.3C409.53,146.86,409.63,129.58,409.24,112.29z M153.88,218.88
	c0-51.13,0-101.69,0-152.81c42.52,25.51,84.67,50.8,127.34,76.41C238.53,168.1,196.37,193.39,153.88,218.88z"/>
</svg>
